#!OML:ASF F:\VICON\USERDATA\INSTALL\rory3\rory3.ASF
:FULLY-SPECIFIED
:DEGREES
542
root 4.64775 15.8758 2.08536 21.4225 -9.03456 -3.28508
lowerback 11.8821 -0.204539 2.82142
upperback 3.32335 0.0754556 0.656858
thorax -3.17884 0.0216441 -0.917159
lowerneck -15.0564 -1.01496 -2.11872
upperneck 37.2464 -0.413985 -1.41111
head 15.6814 -0.705211 -0.309046
rclavicle -2.31087e-014 -1.49089e-015
rhumerus -71.9335 42.9262 -86.1476
rradius 67.5398
rwrist -8.04257
rhand -10.7263 -40.2745
rfingers 7.12502
rthumb 15.2841 -69.6897
lclavicle -2.31087e-014 -1.49089e-015
lhumerus -63.7836 -60.234 83.8572
lradius 57.3648
lwrist 30.3803
lhand -17.3561 -29.8325
lfingers 7.12502
lthumb 8.89169 -0.0398094
rfemur -76.3075 2.63032 17.2833
rtibia 39.1424
rfoot 39.2829 1.78623
rtoes 7.18626
lfemur -54.8514 0.224154 -27.4473
ltibia 60.0952
lfoot -23.9969 5.90747
ltoes 13.1824
543
root 4.6457 15.8683 2.08485 21.4677 -8.9908 -3.34442
lowerback 11.9503 -0.231079 2.8718
upperback 3.30338 0.0509518 0.695142
thorax -3.23785 0.00843339 -0.902148
lowerneck -14.9865 -0.983512 -2.20504
upperneck 37.147 -0.386418 -1.297
head 15.6155 -0.689314 -0.238555
rclavicle 2.09718e-014 -1.87852e-014
rhumerus -72.3005 43.5038 -86.3389
rradius 67.3773
rwrist -8.26206
rhand -10.6679 -39.9515
rfingers 7.12502
rthumb 15.3404 -69.3625
lclavicle 2.09718e-014 -1.87852e-014
lhumerus -64.2007 -60.1818 84.0416
lradius 57.3468
lwrist 30.4813
lhand -17.5908 -29.7762
lfingers 7.12502
lthumb 8.66528 0.0259393
rfemur -76.3931 2.6468 17.3463
rtibia 39.2398
rfoot 39.2946 1.72443
rtoes 7.36668
lfemur -54.9482 0.390769 -27.4337
ltibia 60.1486
lfoot -24.0088 5.7577
ltoes 13.0425
544
root 4.64266 15.86 2.08711 21.4582 -8.97424 -3.35314
lowerback 12.0611 -0.263791 2.87429
upperback 3.33631 0.0111864 0.690918
thorax -3.26546 -0.0113459 -0.902162
lowerneck -15.0477 -0.965087 -2.22243
upperneck 37.12 -0.365951 -1.26018
head 15.6167 -0.678348 -0.216418
rclavicle 1.71949e-014 -2.05742e-014
rhumerus -72.367 43.3279 -86.3875
rradius 67.0291
rwrist -7.7643
rhand -10.4326 -39.8956
rfingers 7.12502
rthumb 15.567 -69.2891
lclavicle 1.71949e-014 -2.05742e-014
lhumerus -64.721 -60.3125 84.247
lradius 57.3466
lwrist 30.5577
lhand -18.7954 -30.6135
lfingers 7.12502
lthumb 7.5026 -0.766522
rfemur -76.4083 2.65307 17.4041
rtibia 39.333
rfoot 39.3451 1.70743
rtoes 7.27654
lfemur -54.9924 0.522399 -27.4532
ltibia 60.2299
lfoot -24.0929 5.58374
ltoes 13.1302
545
root 4.64336 15.8644 2.08417 21.449 -9.00225 -3.30198
lowerback 12.1504 -0.301975 2.79366
upperback 3.41281 -0.0493304 0.64516
thorax -3.23674 -0.0400166 -0.895543
lowerneck -15.2607 -0.93053 -2.06762
upperneck 37.2458 -0.300303 -1.41049
head 15.7296 -0.652371 -0.2999
rclavicle -3.08116e-015 3.97569e-016
rhumerus -72.3189 43.4278 -86.3944
rradius 66.7954
rwrist -7.63779
rhand -10.5075 -40.017
rfingers 7.12502
rthumb 15.4949 -69.4161
lclavicle -3.08116e-015 3.97569e-016
lhumerus -64.9214 -60.3714 84.1481
lradius 57.271
lwrist 30.3903
lhand -19.2664 -31.0688
lfingers 7.12502
lthumb 7.04795 -1.20619
rfemur -76.4021 2.59809 17.4757
rtibia 39.3711
rfoot 39.2729 1.64748
rtoes 6.98198
lfemur -55.0013 0.665 -27.5617
ltibia 60.2453
lfoot -24.1084 5.41384
ltoes 13.1264
546
root 4.64117 15.8582 2.08011 21.4659 -8.9607 -3.258
lowerback 12.2771 -0.364925 2.70908
upperback 3.45882 -0.140123 0.617128
thorax -3.26116 -0.084475 -0.863539
lowerneck -15.3662 -0.859891 -1.88671
upperneck 37.2349 -0.199904 -1.54745
head 15.7482 -0.605109 -0.37409
rclavicle 8.84592e-015 1.78906e-015
rhumerus -72.187 43.5619 -86.2711
rradius 66.6437
rwrist -7.66849
rhand -10.9391 -40.0204
rfingers 7.12502
rthumb 15.0792 -69.4511
lclavicle 8.84592e-015 1.78906e-015
lhumerus -64.9924 -60.3478 83.9802
lradius 57.2301
lwrist 30.5092
lhand -18.943 -30.7804
lfingers 7.12502
lthumb 7.36014 -0.928411
rfemur -76.4805 2.54274 17.5053
rtibia 39.4178
rfoot 39.1893 1.45019
rtoes 7.00317
lfemur -55.0963 0.740238 -27.6315
ltibia 60.2808
lfoot -24.0923 5.24675
ltoes 13.1164
547
root 4.64024 15.8574 2.07606 21.4737 -8.85074 -3.17018
lowerback 12.3833 -0.415986 2.65472
upperback 3.47864 -0.211621 0.591086
thorax -3.30092 -0.119793 -0.849116
lowerneck -15.294 -0.836381 -1.86553
upperneck 37.0339 -0.200963 -1.48193
head 15.6298 -0.591545 -0.347023
rclavicle -2.14687e-014 2.98177e-015
rhumerus -72.1252 43.568 -86.1396
rradius 66.4598
rwrist -7.75909
rhand -11.0868 -40.0395
rfingers 7.12502
rthumb 14.9368 -69.4809
lclavicle -2.14687e-014 2.98177e-015
lhumerus -64.6696 -60.1222 83.4885
lradius 57.0658
lwrist 30.4185
lhand -18.4938 -30.6559
lfingers 7.12502
lthumb 7.79378 -0.81958
rfemur -76.5188 2.39297 17.5057
rtibia 39.4321
rfoot 39.1442 1.26506
rtoes 7.26599
lfemur -55.1487 0.715773 -27.718
ltibia 60.2682
lfoot -24.0846 4.97654
ltoes 13.6999
548
root 4.6423 15.8603 2.07374 21.4818 -8.74375 -3.05058
lowerback 12.3912 -0.442206 2.63673
upperback 3.51208 -0.249845 0.560619
thorax -3.27167 -0.137909 -0.865071
lowerneck -15.2802 -0.874549 -1.79854
upperneck 36.9624 -0.234739 -1.59927
head 15.5906 -0.61111 -0.413706
rclavicle 6.65929e-015 -3.57812e-015
rhumerus -72.1964 43.5346 -86.037
rradius 66.3213
rwrist -7.71804
rhand -10.8768 -40.1113
rfingers 7.12502
rthumb 15.1392 -69.5376
lclavicle 6.65929e-015 -3.57812e-015
lhumerus -64.0367 -59.7886 82.7819
lradius 56.6855
lwrist 29.7889
lhand -18.6108 -31.1881
lfingers 7.12502
lthumb 7.68081 -1.34754
rfemur -76.542 2.16307 17.524
rtibia 39.4654
rfoot 39.0865 1.37232
rtoes 7.02388
lfemur -55.1537 0.675273 -27.8633
ltibia 60.2488
lfoot -24.0832 4.80785
ltoes 14.0825
549
root 4.64106 15.8595 2.07012 21.5122 -8.70697 -2.99935
lowerback 12.3942 -0.44224 2.58407
upperback 3.54111 -0.256392 0.571984
thorax -3.24305 -0.140461 -0.822654
lowerneck -15.2594 -0.945681 -1.8341
upperneck 36.953 -0.289356 -1.70279
head 15.5815 -0.652403 -0.460574
rclavicle -2.38542e-014 -1.98785e-015
rhumerus -72.2275 43.6376 -85.8029
rradius 66.324
rwrist -7.75128
rhand -10.5216 -40.452
rfingers 7.12502
rthumb 15.4813 -69.8521
lclavicle -2.38542e-014 -1.98785e-015
lhumerus -64.1727 -59.8197 82.7993
lradius 56.5347
lwrist 29.494
lhand -19.1213 -31.6624
lfingers 7.12502
lthumb 7.1881 -1.80448
rfemur -76.5968 2.1193 17.4863
rtibia 39.5111
rfoot 39.0441 1.43629
rtoes 6.56521
lfemur -55.2383 0.686789 -27.9371
ltibia 60.2669
lfoot -24.0448 4.86271
ltoes 13.6567
550
root 4.63894 15.8563 2.06539 21.5444 -8.63373 -3.05012
lowerback 12.4416 -0.477843 2.60628
upperback 3.5571 -0.297081 0.626207
thorax -3.25334 -0.160673 -0.772408
lowerneck -15.1095 -0.956366 -1.95952
upperneck 36.8457 -0.268875 -1.70663
head 15.4938 -0.660529 -0.433751
rclavicle 5.96354e-016 4.57205e-015
rhumerus -72.3215 44.1511 -85.6777
rradius 66.2702
rwrist -8.25489
rhand -10.8569 -40.5412
rfingers 7.12502
rthumb 15.1584 -69.966
lclavicle 5.96354e-016 4.57205e-015
lhumerus -64.8392 -60.0793 83.2452
lradius 56.5999
lwrist 29.5695
lhand -19.2399 -31.4953
lfingers 7.12502
lthumb 7.07359 -1.63353
rfemur -76.6487 2.11915 17.538
rtibia 39.5461
rfoot 38.9685 1.4678
rtoes 6.13212
lfemur -55.3485 0.72638 -27.8938
ltibia 60.3303
lfoot -24.0408 4.8045
ltoes 13.5169
551
root 4.63642 15.8443 2.06294 21.5886 -8.45182 -3.13653
lowerback 12.5037 -0.530627 2.75226
upperback 3.58844 -0.345104 0.673517
thorax -3.25627 -0.18461 -0.797894
lowerneck -15.1301 -0.933647 -1.88993
upperneck 36.8249 -0.198198 -1.85946
head 15.4885 -0.64197 -0.498679
rclavicle 9.24349e-015 -2.8625e-014
rhumerus -72.2318 44.4331 -85.5262
rradius 66.0017
rwrist -8.69736
rhand -11.027 -40.5489
rfingers 7.12502
rthumb 14.9944 -69.986
lclavicle 9.24349e-015 -2.8625e-014
lhumerus -64.6335 -60.0513 82.8803
lradius 56.4862
lwrist 29.2763
lhand -19.4182 -31.3792
lfingers 7.12502
lthumb 6.90146 -1.51168
rfemur -76.7253 2.06005 17.6156
rtibia 39.5896
rfoot 38.9309 1.40672
rtoes 6.15816
lfemur -55.4593 0.698913 -27.7896
ltibia 60.443
lfoot -24.1117 4.66842
ltoes 13.0447
552
root 4.63229 15.8382 2.05917 21.6515 -8.31433 -3.21185
lowerback 12.6045 -0.533804 2.85239
upperback 3.619 -0.33302 0.696579
thorax -3.27905 -0.178996 -0.831644
lowerneck -15.3739 -0.943302 -1.6626
upperneck 36.8947 -0.18635 -2.09587
head 15.5801 -0.638557 -0.640544
rclavicle -2.56432e-014 -1.05356e-014
rhumerus -71.9631 43.6168 -85.1441
rradius 65.5579
rwrist -7.94011
rhand -10.2019 -40.7404
rfingers 7.12502
rthumb 15.7893 -70.1165
lclavicle -2.56432e-014 -1.05356e-014
lhumerus -63.9714 -59.7541 82.1008
lradius 56.2915
lwrist 28.8957
lhand -19.1734 -31.3355
lfingers 7.12502
lthumb 7.13778 -1.4759
rfemur -76.7906 2.12249 17.5577
rtibia 39.5974
rfoot 38.9728 1.19029
rtoes 6.60625
lfemur -55.5803 0.643505 -27.6681
ltibia 60.5108
lfoot -24.1077 4.64665
ltoes 11.7393
